P2
#test.pgm
20 20
255
41 31 32 32 35 36 28 27 11 7 7 8 10 5 5 5 7 3 5 7
2 1 3 4 5 4 5 9 6 5 7 6 3 8 5 4 11 5 5 12
3 1 5 8 6 5 6 4 0 7 5 1 4 3 4 11 3 2 6 5
7 2 5 4 8 5 10 5 1 4 3 6 1 2 8 10 4 3 2 7
9 3 5 5 10 7 9 6 8 4 3 1 5 5 5 5 1 9 6 8
4 8 12 2 13 13 15 23 38 24 33 47 45 49 64 62 64 72 81 72
81 78 74 78 77 75 71 80 78 78 83 78 67 82 71 72 74 78 76 77
72 77 78 74 77 88 78 82 91 81 92 91 99 87 91 85 78 82 84 80
81 79 87 90 83 84 92 90 93 91 92 97 94 102 107 106 102 91 99 83
70 74 59 49 39 35 34 31 35 35 27 23 14 6 6 6 11 8 6 3
8 4 5 7 5 4 4 3 9 5 4 4 10 2 4 2 3 2 2 10
7 5 7 2 5 4 3 6 6 9 7 8 1 4 5 2 3 7 5 5
3 5 2 2 7 11 3 1 2 2 4 8 3 12 6 4 1 4 4 10
3 9 2 6 4 11 5 4 3 3 4 5 6 8 5 4 4 5 9 3
1 2 3 6 6 6 23 38 39 35 39 48 54 72 66 69 76 78 74 77
74 72 81 75 81 75 83 84 82 80 81 79 75 77 75 79 68 74 74 70
75 73 71 79 75 75 81 73 84 85 78 93 95 94 80 80 75 78 78 86
85 79 73 78 101 106 88 75 86 90 102 93 99 95 104 116 111 110 109 113
108 103 89 79 73 62 57 56 48 37 34 35 25 24 14 8 13 10 4 8
7 5 6 8 7 1 7 4 3 4 5 5 3 6 3 5 4 5 7 9
